<?xml version="1.0" encoding="utf-8"?>
<!-- Generator: Adobe Illustrator 19.0.0, SVG Export Plug-In . SVG Version: 6.00 Build 0)  -->
<svg version="1.1" id="Layer_1" xmlns="http://www.w3.org/2000/svg" xmlns:xlink="http://www.w3.org/1999/xlink" x="0px" y="0px"
	 viewBox="0 0 1370 758" enable-background="new 0 0 1370 758" xml:space="preserve">
<g id="XMLID_378_">
	<g id="XMLID_323_">
		<g id="XMLID_324_">
			<g id="XMLID_325_">
				<g id="XMLID_326_">
					<g id="XMLID_327_">
						<g id="XMLID_349_">
							<g id="XMLID_351_">
								<g id="XMLID_352_">
									<defs>
										<rect id="XMLID_353_" x="137.9" y="8.6" width="1096.7" height="708.8"/>
									</defs>
									<clipPath id="XMLID_51_">
										<use xlink:href="#XMLID_353_"  overflow="visible"/>
									</clipPath>
									<g id="XMLID_359_" clip-path="url(#XMLID_51_)">
										<defs>
											<path id="XMLID_360_" d="M1196.9,11.8H175.6c-19,0-34.6,15.5-34.6,34.6v31v199v219v182.2v13.2c0,13,10.6,23.6,23.6,23.6
												h1043.3c13,0,23.6-10.6,23.6-23.6v-13.2V495.3v-219v-199v-31C1231.5,27.3,1215.9,11.8,1196.9,11.8"/>
										</defs>
										<clipPath id="XMLID_68_">
											<use xlink:href="#XMLID_360_"  overflow="visible"/>
										</clipPath>
									</g>
									<g id="XMLID_354_" clip-path="url(#XMLID_51_)">
										<defs>
											<path id="XMLID_355_" d="M1207.9,717.4H164.6c-14.7,0-26.7-12-26.7-26.7V46.3c0-20.8,16.9-37.7,37.7-37.7h1021.3
												c20.8,0,37.7,16.9,37.7,37.7v644.4C1234.6,705.5,1222.6,717.4,1207.9,717.4 M175.6,14.9c-17.3,0-31.4,14.1-31.4,31.4
												v644.4c0,11.3,9.2,20.4,20.4,20.4h1043.3c11.3,0,20.4-9.2,20.4-20.4V46.3c0-17.3-14.1-31.4-31.4-31.4H175.6z"/>
										</defs>
										<clipPath id="XMLID_69_">
											<use xlink:href="#XMLID_355_"  overflow="visible"/>
										</clipPath>
									</g>
								</g>
							</g>
						</g>
						<g id="XMLID_346_">
							<defs>
								<rect id="XMLID_347_" x="253.9" y="690.2" width="864.6" height="16.5"/>
							</defs>
							<clipPath id="XMLID_70_">
								<use xlink:href="#XMLID_347_"  overflow="visible"/>
							</clipPath>
						</g>
						<g id="XMLID_339_">
							<defs>
								<rect id="XMLID_340_" x="10.9" y="706.9" width="1348.2" height="25"/>
							</defs>
							<clipPath id="XMLID_71_">
								<use xlink:href="#XMLID_340_"  overflow="visible"/>
							</clipPath>
						</g>
						<g id="XMLID_336_">
							<defs>
								<path id="XMLID_337_" d="M685,706.9h-94c0,0-0.5,4.5,3,9.8c3.7,5.4,8.9,6.2,8.9,6.2h82h81.1c0,0,4.5-0.8,8.5-5.3
									c3.6-4.1,4.3-10.7,4.3-10.7H685z"/>
							</defs>
							<clipPath id="XMLID_72_">
								<use xlink:href="#XMLID_337_"  overflow="visible"/>
							</clipPath>
						</g>
						<g id="XMLID_333_">
							<defs>
								<path id="XMLID_334_" d="M10.9,731.9c0,0,7.7,6.4,29.6,12.7c18.2,5.2,49.5,4.8,49.5,4.8H1280c0,0,31.2,0.5,49.5-4.8
									c21.9-6.3,29.6-12.7,29.6-12.7H10.9z"/>
							</defs>
							<clipPath id="XMLID_73_">
								<use xlink:href="#XMLID_334_"  overflow="visible"/>
							</clipPath>
						</g>
						<g id="XMLID_328_">
							<g id="XMLID_329_">
								<g id="XMLID_330_">
									<defs>
										<rect id="XMLID_331_" x="779.2" y="11.8" width="452.2" height="678.4"/>
									</defs>
									<clipPath id="XMLID_74_">
										<use xlink:href="#XMLID_331_"  overflow="visible"/>
									</clipPath>
								</g>
							</g>
						</g>
					</g>
				</g>
			</g>
		</g>
	</g>
	<g id="XMLID_281_">
		<g id="XMLID_282_">
			<g id="XMLID_283_">
				<g id="XMLID_284_">
					<g id="XMLID_285_">
						<g id="XMLID_310_">
							<g id="XMLID_312_" opacity="0.7">
								<g id="XMLID_313_">
									<defs>
										<rect id="XMLID_314_" x="137.9" y="8.6" width="1096.7" height="708.8"/>
									</defs>
									<clipPath id="XMLID_75_">
										<use xlink:href="#XMLID_314_"  overflow="visible"/>
									</clipPath>
									<g id="XMLID_320_" clip-path="url(#XMLID_75_)">
										<defs>
											<path id="XMLID_321_" d="M1196.9,11.8H175.6c-19,0-34.6,15.5-34.6,34.6v31v199v219v182.2v13.2c0,13,10.6,23.6,23.6,23.6
												h1043.3c13,0,23.6-10.6,23.6-23.6v-13.2V495.3v-219v-199v-31C1231.5,27.3,1215.9,11.8,1196.9,11.8"/>
										</defs>
										<clipPath id="XMLID_76_">
											<use xlink:href="#XMLID_321_"  overflow="visible"/>
										</clipPath>
										
											<linearGradient id="XMLID_77_" gradientUnits="userSpaceOnUse" x1="-214.7299" y1="-222.4032" x2="-213.1593" y2="-222.4032" gradientTransform="matrix(706.4683 0 0 -706.4683 151838.2969 -156757.7812)">
											<stop  offset="0" style="stop-color:#8C8C8C"/>
											<stop  offset="5.454550e-02" style="stop-color:#8C8C8C"/>
											<stop  offset="0.2182" style="stop-color:#A0A0A0"/>
											<stop  offset="0.4" style="stop-color:#787878"/>
											<stop  offset="0.6424" style="stop-color:#A0A0A0"/>
											<stop  offset="0.8364" style="stop-color:#787878"/>
											<stop  offset="1" style="stop-color:#A0A0A0"/>
										</linearGradient>
										
											<rect id="XMLID_322_" x="141.1" y="11.8" clip-path="url(#XMLID_76_)" fill="url(#XMLID_77_)" width="1090.4" height="702.5"/>
									</g>
									<g id="XMLID_315_" clip-path="url(#XMLID_75_)">
										<defs>
											<path id="XMLID_316_" d="M1207.9,717.4H164.6c-14.7,0-26.7-12-26.7-26.7V46.3c0-20.8,16.9-37.7,37.7-37.7h1021.3
												c20.8,0,37.7,16.9,37.7,37.7v644.4C1234.6,705.5,1222.6,717.4,1207.9,717.4 M175.6,14.9c-17.3,0-31.4,14.1-31.4,31.4
												v644.4c0,11.3,9.2,20.4,20.4,20.4h1043.3c11.3,0,20.4-9.2,20.4-20.4V46.3c0-17.3-14.1-31.4-31.4-31.4H175.6z"/>
										</defs>
										<clipPath id="XMLID_78_">
											<use xlink:href="#XMLID_316_"  overflow="visible"/>
										</clipPath>
										
											<linearGradient id="XMLID_79_" gradientUnits="userSpaceOnUse" x1="-214.7302" y1="-222.4032" x2="-213.1595" y2="-222.4032" gradientTransform="matrix(706.468 0 0 -706.468 151837.9062 -156757.7031)">
											<stop  offset="0" style="stop-color:#8C8C8C"/>
											<stop  offset="5.454550e-02" style="stop-color:#8C8C8C"/>
											<stop  offset="0.2182" style="stop-color:#A0A0A0"/>
											<stop  offset="0.4" style="stop-color:#787878"/>
											<stop  offset="0.6424" style="stop-color:#A0A0A0"/>
											<stop  offset="0.8364" style="stop-color:#787878"/>
											<stop  offset="1" style="stop-color:#A0A0A0"/>
										</linearGradient>
										
											<rect id="XMLID_319_" x="137.9" y="8.6" clip-path="url(#XMLID_78_)" fill="url(#XMLID_79_)" width="1096.7" height="708.8"/>
									</g>
								</g>
							</g>
							<path id="XMLID_311_" fill="#1C1F23" d="M1231.5,690.7c0,13-10.6,23.6-23.6,23.6H164.6c-13,0-23.6-10.6-23.6-23.6V77.3
								c0-13,10.6-23.6,23.6-23.6h1043.3c13,0,23.6,10.6,23.6,23.6V690.7z"/>
						</g>
						<g id="XMLID_307_">
							<defs>
								<rect id="XMLID_308_" x="253.9" y="690.2" width="864.6" height="16.5"/>
							</defs>
							<clipPath id="XMLID_80_">
								<use xlink:href="#XMLID_308_"  overflow="visible"/>
							</clipPath>
							
								<linearGradient id="XMLID_81_" gradientUnits="userSpaceOnUse" x1="-320.1404" y1="-258.128" x2="-318.5697" y2="-258.128" gradientTransform="matrix(0 -10.5 -10.5 0 -2024.0862 -2654.8252)">
								<stop  offset="0" style="stop-color:#2B2C2E"/>
								<stop  offset="0.5879" style="stop-color:#272B30"/>
								<stop  offset="0.7879" style="stop-color:#0A0E11"/>
								<stop  offset="1" style="stop-color:#070B0E"/>
							</linearGradient>
							
								<rect id="XMLID_309_" x="253.9" y="690.2" clip-path="url(#XMLID_80_)" fill="url(#XMLID_81_)" width="864.6" height="16.5"/>
						</g>
						<g id="XMLID_303_">
							<path id="XMLID_306_" fill="#000003" d="M1196.9,11.8H175.6c-19,0-34.6,15.5-34.6,34.6v229.9v219v182.2
								c0,7,5.7,12.7,12.7,12.7h1065.1c7,0,12.7-5.7,12.7-12.7V495.3v-219V46.3C1231.5,27.3,1215.9,11.8,1196.9,11.8"/>
							<path id="XMLID_305_" fill="none" stroke="#323232" stroke-width="1.5706" stroke-miterlimit="10" d="M1196.9,11.8H175.6
								c-19,0-34.6,15.5-34.6,34.6v229.9v219v182.2c0,7,5.7,12.7,12.7,12.7h1065.1c7,0,12.7-5.7,12.7-12.7V495.3v-219V46.3
								C1231.5,27.3,1215.9,11.8,1196.9,11.8z"/>
							<rect id="XMLID_304_" x="171.4" y="53.7" fill="#000003" width="1030.6" height="609.6"/>
						</g>
						<g id="XMLID_300_">
							<defs>
								<rect id="XMLID_301_" x="10.9" y="706.9" width="1348.2" height="25"/>
							</defs>
							<clipPath id="XMLID_82_">
								<use xlink:href="#XMLID_301_"  overflow="visible"/>
							</clipPath>
							
								<linearGradient id="XMLID_83_" gradientUnits="userSpaceOnUse" x1="-214.8317" y1="-222.2915" x2="-213.261" y2="-222.2915" gradientTransform="matrix(858.3623 0 0 -858.3623 184414.3281 -190087.2812)">
								<stop  offset="0" style="stop-color:#828387"/>
								<stop  offset="5.801720e-03" style="stop-color:#D0D1D3"/>
								<stop  offset="2.559890e-02" style="stop-color:#929397"/>
								<stop  offset="5.416330e-02" style="stop-color:#D1D2D5"/>
								<stop  offset="0.5091" style="stop-color:#F3F3F4"/>
								<stop  offset="0.9364" style="stop-color:#D1D2D5"/>
								<stop  offset="0.9672" style="stop-color:#929397"/>
								<stop  offset="0.9894" style="stop-color:#E6E6E6"/>
								<stop  offset="0.9955" style="stop-color:#D0D1D3"/>
								<stop  offset="1" style="stop-color:#828387"/>
							</linearGradient>
							<rect id="XMLID_302_" x="10.9" y="706.9" clip-path="url(#XMLID_82_)" fill="url(#XMLID_83_)" width="1348.2" height="25"/>
						</g>
						<g id="XMLID_297_">
							<defs>
								<path id="XMLID_298_" d="M685,706.9h-94c0,0-0.5,4.5,3,9.8c3.7,5.4,8.9,6.2,8.9,6.2h82h81.1c0,0,4.5-0.8,8.5-5.3
									c3.6-4.1,4.3-10.7,4.3-10.7H685z"/>
							</defs>
							<clipPath id="XMLID_84_">
								<use xlink:href="#XMLID_298_"  overflow="visible"/>
							</clipPath>
							
								<linearGradient id="XMLID_85_" gradientUnits="userSpaceOnUse" x1="-212.0314" y1="-230.2502" x2="-210.4608" y2="-230.2502" gradientTransform="matrix(119.6691 0 0 -119.6691 25964.6426 -26838.959)">
								<stop  offset="0" style="stop-color:#95969B"/>
								<stop  offset="7.878790e-02" style="stop-color:#D8D9DB"/>
								<stop  offset="0.5455" style="stop-color:#D7D8DB"/>
								<stop  offset="0.9212" style="stop-color:#D8D9DB"/>
								<stop  offset="1" style="stop-color:#95969B"/>
							</linearGradient>
							<rect id="XMLID_299_" x="590.5" y="706.9" clip-path="url(#XMLID_84_)" fill="url(#XMLID_85_)" width="188.4" height="16"/>
						</g>
						<g id="XMLID_294_">
							<defs>
								<path id="XMLID_295_" d="M10.9,731.9c0,0,7.7,6.4,29.6,12.7c18.2,5.2,49.5,4.8,49.5,4.8H1280c0,0,31.2,0.5,49.5-4.8
									c21.9-6.3,29.6-12.7,29.6-12.7H10.9z"/>
							</defs>
							<clipPath id="XMLID_86_">
								<use xlink:href="#XMLID_295_"  overflow="visible"/>
							</clipPath>
							
								<linearGradient id="XMLID_87_" gradientUnits="userSpaceOnUse" x1="-315.7369" y1="-256.0388" x2="-314.1662" y2="-256.0388" gradientTransform="matrix(0 -11.113 -11.113 0 -2160.3584 -2759.4309)">
								<stop  offset="0" style="stop-color:#2B2C2E"/>
								<stop  offset="0.1452" style="stop-color:#3C3D40"/>
								<stop  offset="0.3721" style="stop-color:#5F6064"/>
								<stop  offset="0.7504" style="stop-color:#88898D"/>
								<stop  offset="1" style="stop-color:#909195"/>
							</linearGradient>
							
								<rect id="XMLID_296_" x="10.9" y="731.9" clip-path="url(#XMLID_86_)" fill="url(#XMLID_87_)" width="1348.2" height="17.9"/>
						</g>
						<g id="XMLID_286_">
							<defs>
								<filter id="Adobe_OpacityMaskFilter" filterUnits="userSpaceOnUse" x="779.2" y="11.8" width="452.2" height="678.4">
									<feFlood  style="flood-color:white;flood-opacity:1" result="back"/>
									<feBlend  in="SourceGraphic" in2="back" mode="normal"/>
								</filter>
							</defs>
							<mask maskUnits="userSpaceOnUse" x="779.2" y="11.8" width="452.2" height="678.4" id="XMLID_88_">
								<g id="XMLID_288_" filter="url(#Adobe_OpacityMaskFilter)">
									<g id="XMLID_289_" enable-background="new    ">
										
											<linearGradient id="XMLID_89_" gradientUnits="userSpaceOnUse" x1="-218.2834" y1="-222.5157" x2="-216.7127" y2="-222.5157" gradientTransform="matrix(0 -332.1462 -332.1462 0 -72908.8125 -71899.3828)">
											<stop  offset="0" style="stop-color:#000000"/>
											<stop  offset="1" style="stop-color:#FFFFFF"/>
										</linearGradient>
										<rect id="XMLID_290_" x="750" y="1" fill="url(#XMLID_89_)" width="497.9" height="757"/>
									</g>
								</g>
							</mask>
							<g id="XMLID_287_" opacity="0.21" mask="url(#XMLID_88_)">
								<g id="XMLID_291_">
									<defs>
										<rect id="XMLID_292_" x="779.2" y="11.8" width="452.2" height="678.4"/>
									</defs>
									<clipPath id="XMLID_90_">
										<use xlink:href="#XMLID_292_"  overflow="visible"/>
									</clipPath>
									<path id="XMLID_293_" clip-path="url(#XMLID_90_)" fill="#FFFFFF" d="M1196.9,11.8H779.2l287.3,678.4h152.3
										c7,0,12.7-5.7,12.7-12.7V495.3v-219V46.3C1231.5,27.3,1215.9,11.8,1196.9,11.8"/>
								</g>
							</g>
						</g>
					</g>
				</g>
			</g>
		</g>
	</g>
	<g id="XMLID_242_">
		<g id="XMLID_243_">
			<g id="XMLID_244_">
				<g id="XMLID_245_">
					<g id="XMLID_246_">
						<g id="XMLID_268_">
							<g id="XMLID_270_">
								<g id="XMLID_271_">
									<defs>
										<rect id="XMLID_272_" x="137.9" y="8.6" width="1096.7" height="708.8"/>
									</defs>
									<clipPath id="XMLID_91_">
										<use xlink:href="#XMLID_272_"  overflow="visible"/>
									</clipPath>
									<g id="XMLID_278_" clip-path="url(#XMLID_91_)">
										<defs>
											<path id="XMLID_279_" d="M1196.9,11.8H175.6c-19,0-34.6,15.5-34.6,34.6v31v199v219v182.2v13.2c0,13,10.6,23.6,23.6,23.6
												h1043.3c13,0,23.6-10.6,23.6-23.6v-13.2V495.3v-219v-199v-31C1231.5,27.3,1215.9,11.8,1196.9,11.8"/>
										</defs>
										<clipPath id="XMLID_92_">
											<use xlink:href="#XMLID_279_"  overflow="visible"/>
										</clipPath>
									</g>
									<g id="XMLID_273_" clip-path="url(#XMLID_91_)">
										<defs>
											<path id="XMLID_274_" d="M1207.9,717.4H164.6c-14.7,0-26.7-12-26.7-26.7V46.3c0-20.8,16.9-37.7,37.7-37.7h1021.3
												c20.8,0,37.7,16.9,37.7,37.7v644.4C1234.6,705.5,1222.6,717.4,1207.9,717.4 M175.6,14.9c-17.3,0-31.4,14.1-31.4,31.4
												v644.4c0,11.3,9.2,20.4,20.4,20.4h1043.3c11.3,0,20.4-9.2,20.4-20.4V46.3c0-17.3-14.1-31.4-31.4-31.4H175.6z"/>
										</defs>
										<clipPath id="XMLID_93_">
											<use xlink:href="#XMLID_274_"  overflow="visible"/>
										</clipPath>
									</g>
								</g>
							</g>
						</g>
						<g id="XMLID_265_">
							<defs>
								<rect id="XMLID_266_" x="253.9" y="690.2" width="864.6" height="16.5"/>
							</defs>
							<clipPath id="XMLID_94_">
								<use xlink:href="#XMLID_266_"  overflow="visible"/>
							</clipPath>
						</g>
						<g id="XMLID_258_">
							<defs>
								<rect id="XMLID_259_" x="10.9" y="706.9" width="1348.2" height="25"/>
							</defs>
							<clipPath id="XMLID_95_">
								<use xlink:href="#XMLID_259_"  overflow="visible"/>
							</clipPath>
						</g>
						<g id="XMLID_255_">
							<defs>
								<path id="XMLID_256_" d="M685,706.9h-94c0,0-0.5,4.5,3,9.8c3.7,5.4,8.9,6.2,8.9,6.2h82h81.1c0,0,4.5-0.8,8.5-5.3
									c3.6-4.1,4.3-10.7,4.3-10.7H685z"/>
							</defs>
							<clipPath id="XMLID_96_">
								<use xlink:href="#XMLID_256_"  overflow="visible"/>
							</clipPath>
						</g>
						<g id="XMLID_252_">
							<defs>
								<path id="XMLID_253_" d="M10.9,731.9c0,0,7.7,6.4,29.6,12.7c18.2,5.2,49.5,4.8,49.5,4.8H1280c0,0,31.2,0.5,49.5-4.8
									c21.9-6.3,29.6-12.7,29.6-12.7H10.9z"/>
							</defs>
							<clipPath id="XMLID_97_">
								<use xlink:href="#XMLID_253_"  overflow="visible"/>
							</clipPath>
						</g>
						<g id="XMLID_247_">
							<g id="XMLID_248_">
								<g id="XMLID_249_">
									<defs>
										<rect id="XMLID_250_" x="779.2" y="11.8" width="452.2" height="678.4"/>
									</defs>
									<clipPath id="XMLID_98_">
										<use xlink:href="#XMLID_250_"  overflow="visible"/>
									</clipPath>
								</g>
							</g>
						</g>
					</g>
				</g>
			</g>
		</g>
	</g>
</g>
</svg>
